<mxfile host="65bd71144e">
    <diagram name="PÃ¡gina-1" id="2Q1bLuBGSzmR17xiN_u2">
        <mxGraphModel dx="1052" dy="726" grid="1" gridSize="10" guides="1" tooltips="1" connect="1" arrows="1" fold="1" page="1" pageScale="1" pageWidth="827" pageHeight="1169" math="0" shadow="0">
            <root>
                <mxCell id="0"/>
                <mxCell id="1" parent="0"/>
                <mxCell id="9sYsQofWPHRhWnF0ltaN-22" value="Login" style="shape=umlFrame;whiteSpace=wrap;html=1;pointerEvents=0;" parent="1" vertex="1">
                    <mxGeometry x="41" y="273" width="740" height="200" as="geometry"/>
                </mxCell>
                <mxCell id="9sYsQofWPHRhWnF0ltaN-23" style="edgeStyle=orthogonalEdgeStyle;rounded=0;orthogonalLoop=1;jettySize=auto;html=1;exitX=0;exitY=0.75;exitDx=0;exitDy=0;entryX=1;entryY=0.75;entryDx=0;entryDy=0;" parent="1" source="9sYsQofWPHRhWnF0ltaN-25" target="9sYsQofWPHRhWnF0ltaN-28" edge="1">
                    <mxGeometry relative="1" as="geometry"/>
                </mxCell>
                <mxCell id="9sYsQofWPHRhWnF0ltaN-24" value="Authentication Token" style="edgeLabel;html=1;align=center;verticalAlign=middle;resizable=0;points=[];" parent="9sYsQofWPHRhWnF0ltaN-23" vertex="1" connectable="0">
                    <mxGeometry x="-0.2248" y="1" relative="1" as="geometry">
                        <mxPoint x="-15" y="12" as="offset"/>
                    </mxGeometry>
                </mxCell>
                <mxCell id="9sYsQofWPHRhWnF0ltaN-25" value="Messaging API" style="html=1;whiteSpace=wrap;" parent="1" vertex="1">
                    <mxGeometry x="370" y="368" width="110" height="50" as="geometry"/>
                </mxCell>
                <mxCell id="9sYsQofWPHRhWnF0ltaN-26" style="edgeStyle=orthogonalEdgeStyle;rounded=0;orthogonalLoop=1;jettySize=auto;html=1;entryX=0;entryY=0.5;entryDx=0;entryDy=0;" parent="1" source="9sYsQofWPHRhWnF0ltaN-28" target="9sYsQofWPHRhWnF0ltaN-25" edge="1">
                    <mxGeometry relative="1" as="geometry"/>
                </mxCell>
                <mxCell id="9sYsQofWPHRhWnF0ltaN-27" value="/login&lt;br&gt;&lt;br&gt;payload:&lt;br&gt;&amp;nbsp; username&lt;br&gt;&amp;nbsp; password" style="edgeLabel;html=1;align=left;verticalAlign=middle;resizable=0;points=[];" parent="9sYsQofWPHRhWnF0ltaN-26" vertex="1" connectable="0">
                    <mxGeometry x="-0.2081" y="1" relative="1" as="geometry">
                        <mxPoint x="-15" y="-36" as="offset"/>
                    </mxGeometry>
                </mxCell>
                <mxCell id="9sYsQofWPHRhWnF0ltaN-28" value="Client" style="html=1;whiteSpace=wrap;" parent="1" vertex="1">
                    <mxGeometry x="121" y="368" width="110" height="50" as="geometry"/>
                </mxCell>
                <mxCell id="9sYsQofWPHRhWnF0ltaN-30" style="edgeStyle=orthogonalEdgeStyle;rounded=0;orthogonalLoop=1;jettySize=auto;html=1;entryX=0;entryY=0.5;entryDx=0;entryDy=0;entryPerimeter=0;" parent="1" source="9sYsQofWPHRhWnF0ltaN-25" target="9sYsQofWPHRhWnF0ltaN-80" edge="1">
                    <mxGeometry relative="1" as="geometry">
                        <mxPoint x="641" y="393" as="targetPoint"/>
                    </mxGeometry>
                </mxCell>
                <mxCell id="9sYsQofWPHRhWnF0ltaN-31" value="check if token exists&lt;br&gt;if not creates a new one" style="edgeLabel;html=1;align=center;verticalAlign=middle;resizable=0;points=[];" parent="9sYsQofWPHRhWnF0ltaN-30" vertex="1" connectable="0">
                    <mxGeometry x="-0.2335" y="1" relative="1" as="geometry">
                        <mxPoint x="10" y="24" as="offset"/>
                    </mxGeometry>
                </mxCell>
                <mxCell id="9sYsQofWPHRhWnF0ltaN-32" value="Contacts" style="shape=umlFrame;whiteSpace=wrap;html=1;pointerEvents=0;width=76;height=40;" parent="1" vertex="1">
                    <mxGeometry x="41" y="487" width="736" height="200" as="geometry"/>
                </mxCell>
                <mxCell id="9sYsQofWPHRhWnF0ltaN-33" style="edgeStyle=orthogonalEdgeStyle;rounded=0;orthogonalLoop=1;jettySize=auto;html=1;exitX=0;exitY=0.75;exitDx=0;exitDy=0;entryX=1;entryY=0.75;entryDx=0;entryDy=0;" parent="1" source="9sYsQofWPHRhWnF0ltaN-35" target="9sYsQofWPHRhWnF0ltaN-38" edge="1">
                    <mxGeometry relative="1" as="geometry"/>
                </mxCell>
                <mxCell id="9sYsQofWPHRhWnF0ltaN-42" value="User list" style="edgeLabel;html=1;align=center;verticalAlign=middle;resizable=0;points=[];" parent="9sYsQofWPHRhWnF0ltaN-33" vertex="1" connectable="0">
                    <mxGeometry x="0.0479" relative="1" as="geometry">
                        <mxPoint x="-6" y="13" as="offset"/>
                    </mxGeometry>
                </mxCell>
                <mxCell id="9sYsQofWPHRhWnF0ltaN-35" value="Messaging API" style="html=1;whiteSpace=wrap;" parent="1" vertex="1">
                    <mxGeometry x="365" y="598" width="110" height="50" as="geometry"/>
                </mxCell>
                <mxCell id="9sYsQofWPHRhWnF0ltaN-36" style="edgeStyle=orthogonalEdgeStyle;rounded=0;orthogonalLoop=1;jettySize=auto;html=1;entryX=0;entryY=0.5;entryDx=0;entryDy=0;" parent="1" source="9sYsQofWPHRhWnF0ltaN-38" target="9sYsQofWPHRhWnF0ltaN-35" edge="1">
                    <mxGeometry relative="1" as="geometry"/>
                </mxCell>
                <mxCell id="9sYsQofWPHRhWnF0ltaN-37" value="/list-contacts&lt;br&gt;&lt;br&gt;header:&lt;br&gt;user-token&lt;br&gt;&lt;br&gt;payload:&lt;br&gt;&amp;nbsp; &amp;nbsp; - itens_per_page&lt;br&gt;&amp;nbsp; &amp;nbsp; - offset" style="edgeLabel;html=1;align=left;verticalAlign=middle;resizable=0;points=[];" parent="9sYsQofWPHRhWnF0ltaN-36" vertex="1" connectable="0">
                    <mxGeometry x="-0.2081" y="1" relative="1" as="geometry">
                        <mxPoint x="-35" y="-59" as="offset"/>
                    </mxGeometry>
                </mxCell>
                <mxCell id="9sYsQofWPHRhWnF0ltaN-38" value="Client" style="html=1;whiteSpace=wrap;" parent="1" vertex="1">
                    <mxGeometry x="116" y="598" width="110" height="50" as="geometry"/>
                </mxCell>
                <mxCell id="9sYsQofWPHRhWnF0ltaN-40" style="edgeStyle=orthogonalEdgeStyle;rounded=0;orthogonalLoop=1;jettySize=auto;html=1;entryX=0.006;entryY=0.603;entryDx=0;entryDy=0;entryPerimeter=0;" parent="1" source="9sYsQofWPHRhWnF0ltaN-35" target="9sYsQofWPHRhWnF0ltaN-82" edge="1">
                    <mxGeometry relative="1" as="geometry">
                        <mxPoint x="636" y="623" as="targetPoint"/>
                    </mxGeometry>
                </mxCell>
                <mxCell id="9sYsQofWPHRhWnF0ltaN-41" value="Recover list of user contacts" style="edgeLabel;html=1;align=center;verticalAlign=middle;resizable=0;points=[];" parent="9sYsQofWPHRhWnF0ltaN-40" vertex="1" connectable="0">
                    <mxGeometry x="-0.2335" y="1" relative="1" as="geometry">
                        <mxPoint x="20" y="11" as="offset"/>
                    </mxGeometry>
                </mxCell>
                <mxCell id="9sYsQofWPHRhWnF0ltaN-43" value="Send Message" style="shape=umlFrame;whiteSpace=wrap;html=1;pointerEvents=0;width=76;height=40;" parent="1" vertex="1">
                    <mxGeometry x="41" y="1137" width="736" height="200" as="geometry"/>
                </mxCell>
                <mxCell id="9sYsQofWPHRhWnF0ltaN-44" style="edgeStyle=orthogonalEdgeStyle;rounded=0;orthogonalLoop=1;jettySize=auto;html=1;exitX=0;exitY=0.75;exitDx=0;exitDy=0;entryX=1;entryY=0.75;entryDx=0;entryDy=0;" parent="1" source="9sYsQofWPHRhWnF0ltaN-46" target="9sYsQofWPHRhWnF0ltaN-49" edge="1">
                    <mxGeometry relative="1" as="geometry"/>
                </mxCell>
                <mxCell id="9sYsQofWPHRhWnF0ltaN-45" value="Message id" style="edgeLabel;html=1;align=center;verticalAlign=middle;resizable=0;points=[];" parent="9sYsQofWPHRhWnF0ltaN-44" vertex="1" connectable="0">
                    <mxGeometry x="0.0479" relative="1" as="geometry">
                        <mxPoint x="-6" y="13" as="offset"/>
                    </mxGeometry>
                </mxCell>
                <mxCell id="9sYsQofWPHRhWnF0ltaN-46" value="Messaging API" style="html=1;whiteSpace=wrap;" parent="1" vertex="1">
                    <mxGeometry x="360" y="1247" width="110" height="50" as="geometry"/>
                </mxCell>
                <mxCell id="9sYsQofWPHRhWnF0ltaN-47" style="edgeStyle=orthogonalEdgeStyle;rounded=0;orthogonalLoop=1;jettySize=auto;html=1;entryX=0;entryY=0.5;entryDx=0;entryDy=0;" parent="1" source="9sYsQofWPHRhWnF0ltaN-49" target="9sYsQofWPHRhWnF0ltaN-46" edge="1">
                    <mxGeometry relative="1" as="geometry"/>
                </mxCell>
                <mxCell id="9sYsQofWPHRhWnF0ltaN-48" value="/send&lt;br&gt;&lt;br&gt;header:&lt;br&gt;user-token&lt;br&gt;&lt;br&gt;payload:&lt;br&gt;&amp;nbsp; &amp;nbsp; - chat_id&lt;br&gt;&amp;nbsp; &amp;nbsp; - message" style="edgeLabel;html=1;align=left;verticalAlign=middle;resizable=0;points=[];" parent="9sYsQofWPHRhWnF0ltaN-47" vertex="1" connectable="0">
                    <mxGeometry x="-0.2081" y="1" relative="1" as="geometry">
                        <mxPoint x="-35" y="-59" as="offset"/>
                    </mxGeometry>
                </mxCell>
                <mxCell id="9sYsQofWPHRhWnF0ltaN-49" value="Client" style="html=1;whiteSpace=wrap;" parent="1" vertex="1">
                    <mxGeometry x="111" y="1247" width="110" height="50" as="geometry"/>
                </mxCell>
                <mxCell id="9sYsQofWPHRhWnF0ltaN-51" style="edgeStyle=orthogonalEdgeStyle;rounded=0;orthogonalLoop=1;jettySize=auto;html=1;entryX=-0.01;entryY=0.592;entryDx=0;entryDy=0;entryPerimeter=0;" parent="1" source="9sYsQofWPHRhWnF0ltaN-46" target="9sYsQofWPHRhWnF0ltaN-53" edge="1">
                    <mxGeometry relative="1" as="geometry">
                        <mxPoint x="631" y="1272" as="targetPoint"/>
                    </mxGeometry>
                </mxCell>
                <mxCell id="9sYsQofWPHRhWnF0ltaN-52" value="Register new message on chat" style="edgeLabel;html=1;align=center;verticalAlign=middle;resizable=0;points=[];" parent="9sYsQofWPHRhWnF0ltaN-51" vertex="1" connectable="0">
                    <mxGeometry x="-0.2335" y="1" relative="1" as="geometry">
                        <mxPoint x="20" y="11" as="offset"/>
                    </mxGeometry>
                </mxCell>
                <mxCell id="9sYsQofWPHRhWnF0ltaN-53" value="Messaging DB" style="image;sketch=0;aspect=fixed;html=1;points=[];align=center;fontSize=12;image=img/lib/mscae/Cache_Redis_Product.svg;" parent="1" vertex="1">
                    <mxGeometry x="650" y="1247" width="50" height="42" as="geometry"/>
                </mxCell>
                <mxCell id="9sYsQofWPHRhWnF0ltaN-54" value="Start chat" style="shape=umlFrame;whiteSpace=wrap;html=1;pointerEvents=0;width=76;height=40;" parent="1" vertex="1">
                    <mxGeometry x="41" y="706" width="736" height="200" as="geometry"/>
                </mxCell>
                <mxCell id="9sYsQofWPHRhWnF0ltaN-55" style="edgeStyle=orthogonalEdgeStyle;rounded=0;orthogonalLoop=1;jettySize=auto;html=1;exitX=0;exitY=0.75;exitDx=0;exitDy=0;entryX=1;entryY=0.75;entryDx=0;entryDy=0;" parent="1" source="9sYsQofWPHRhWnF0ltaN-57" target="9sYsQofWPHRhWnF0ltaN-60" edge="1">
                    <mxGeometry relative="1" as="geometry"/>
                </mxCell>
                <mxCell id="9sYsQofWPHRhWnF0ltaN-56" value="Chat id" style="edgeLabel;html=1;align=center;verticalAlign=middle;resizable=0;points=[];" parent="9sYsQofWPHRhWnF0ltaN-55" vertex="1" connectable="0">
                    <mxGeometry x="0.0479" relative="1" as="geometry">
                        <mxPoint x="-6" y="13" as="offset"/>
                    </mxGeometry>
                </mxCell>
                <mxCell id="9sYsQofWPHRhWnF0ltaN-57" value="Messaging API" style="html=1;whiteSpace=wrap;" parent="1" vertex="1">
                    <mxGeometry x="356" y="800" width="110" height="50" as="geometry"/>
                </mxCell>
                <mxCell id="9sYsQofWPHRhWnF0ltaN-58" style="edgeStyle=orthogonalEdgeStyle;rounded=0;orthogonalLoop=1;jettySize=auto;html=1;entryX=0;entryY=0.5;entryDx=0;entryDy=0;" parent="1" source="9sYsQofWPHRhWnF0ltaN-60" target="9sYsQofWPHRhWnF0ltaN-57" edge="1">
                    <mxGeometry relative="1" as="geometry"/>
                </mxCell>
                <mxCell id="9sYsQofWPHRhWnF0ltaN-59" value="/create-chat&lt;br&gt;&lt;br&gt;header:&lt;br&gt;user-token&lt;br&gt;&lt;br&gt;payload:&lt;br&gt;&amp;nbsp; &amp;nbsp; - user_id_list" style="edgeLabel;html=1;align=left;verticalAlign=middle;resizable=0;points=[];" parent="9sYsQofWPHRhWnF0ltaN-58" vertex="1" connectable="0">
                    <mxGeometry x="-0.2081" y="1" relative="1" as="geometry">
                        <mxPoint x="-35" y="-59" as="offset"/>
                    </mxGeometry>
                </mxCell>
                <mxCell id="9sYsQofWPHRhWnF0ltaN-60" value="Client" style="html=1;whiteSpace=wrap;" parent="1" vertex="1">
                    <mxGeometry x="107" y="800" width="110" height="50" as="geometry"/>
                </mxCell>
                <mxCell id="9sYsQofWPHRhWnF0ltaN-61" style="edgeStyle=orthogonalEdgeStyle;rounded=0;orthogonalLoop=1;jettySize=auto;html=1;entryX=0;entryY=0.5;entryDx=0;entryDy=0;entryPerimeter=0;" parent="1" source="9sYsQofWPHRhWnF0ltaN-57" target="9sYsQofWPHRhWnF0ltaN-83" edge="1">
                    <mxGeometry relative="1" as="geometry">
                        <mxPoint x="669.9999999999998" y="787" as="targetPoint"/>
                        <Array as="points">
                            <mxPoint x="600" y="826"/>
                            <mxPoint x="600" y="776"/>
                        </Array>
                    </mxGeometry>
                </mxCell>
                <mxCell id="9sYsQofWPHRhWnF0ltaN-62" value="Register new chat" style="edgeLabel;html=1;align=center;verticalAlign=middle;resizable=0;points=[];" parent="9sYsQofWPHRhWnF0ltaN-61" vertex="1" connectable="0">
                    <mxGeometry x="-0.2335" y="1" relative="1" as="geometry">
                        <mxPoint x="-37" y="12" as="offset"/>
                    </mxGeometry>
                </mxCell>
                <mxCell id="9sYsQofWPHRhWnF0ltaN-65" value="Messaging DB" style="image;sketch=0;aspect=fixed;html=1;points=[];align=center;fontSize=12;image=img/lib/mscae/Cache_Redis_Product.svg;" parent="1" vertex="1">
                    <mxGeometry x="675" y="832" width="50" height="42" as="geometry"/>
                </mxCell>
                <mxCell id="9sYsQofWPHRhWnF0ltaN-66" style="edgeStyle=orthogonalEdgeStyle;rounded=0;orthogonalLoop=1;jettySize=auto;html=1;entryX=0.003;entryY=0.542;entryDx=0;entryDy=0;entryPerimeter=0;" parent="1" source="9sYsQofWPHRhWnF0ltaN-57" target="9sYsQofWPHRhWnF0ltaN-65" edge="1">
                    <mxGeometry relative="1" as="geometry">
                        <Array as="points">
                            <mxPoint x="600" y="826"/>
                            <mxPoint x="600" y="855"/>
                        </Array>
                    </mxGeometry>
                </mxCell>
                <mxCell id="9sYsQofWPHRhWnF0ltaN-67" value="List chats" style="shape=umlFrame;whiteSpace=wrap;html=1;pointerEvents=0;width=76;height=40;" parent="1" vertex="1">
                    <mxGeometry x="41" y="917" width="736" height="200" as="geometry"/>
                </mxCell>
                <mxCell id="9sYsQofWPHRhWnF0ltaN-68" style="edgeStyle=orthogonalEdgeStyle;rounded=0;orthogonalLoop=1;jettySize=auto;html=1;exitX=0;exitY=0.75;exitDx=0;exitDy=0;entryX=1;entryY=0.75;entryDx=0;entryDy=0;" parent="1" source="9sYsQofWPHRhWnF0ltaN-70" target="9sYsQofWPHRhWnF0ltaN-73" edge="1">
                    <mxGeometry relative="1" as="geometry"/>
                </mxCell>
                <mxCell id="9sYsQofWPHRhWnF0ltaN-69" value="Chat list" style="edgeLabel;html=1;align=center;verticalAlign=middle;resizable=0;points=[];" parent="9sYsQofWPHRhWnF0ltaN-68" vertex="1" connectable="0">
                    <mxGeometry x="0.0479" relative="1" as="geometry">
                        <mxPoint x="-6" y="13" as="offset"/>
                    </mxGeometry>
                </mxCell>
                <mxCell id="9sYsQofWPHRhWnF0ltaN-70" value="Messaging API" style="html=1;whiteSpace=wrap;" parent="1" vertex="1">
                    <mxGeometry x="360" y="1027" width="110" height="50" as="geometry"/>
                </mxCell>
                <mxCell id="9sYsQofWPHRhWnF0ltaN-71" style="edgeStyle=orthogonalEdgeStyle;rounded=0;orthogonalLoop=1;jettySize=auto;html=1;entryX=0;entryY=0.5;entryDx=0;entryDy=0;" parent="1" source="9sYsQofWPHRhWnF0ltaN-73" target="9sYsQofWPHRhWnF0ltaN-70" edge="1">
                    <mxGeometry relative="1" as="geometry"/>
                </mxCell>
                <mxCell id="9sYsQofWPHRhWnF0ltaN-72" value="/list-chats&lt;br&gt;&lt;br&gt;header:&lt;br&gt;user-token&lt;br&gt;&lt;br&gt;payload:&lt;br&gt;&amp;nbsp; &amp;nbsp; - itens_per_page&lt;br&gt;&amp;nbsp; &amp;nbsp; - offset" style="edgeLabel;html=1;align=left;verticalAlign=middle;resizable=0;points=[];" parent="9sYsQofWPHRhWnF0ltaN-71" vertex="1" connectable="0">
                    <mxGeometry x="-0.2081" y="1" relative="1" as="geometry">
                        <mxPoint x="-41" y="-59" as="offset"/>
                    </mxGeometry>
                </mxCell>
                <mxCell id="9sYsQofWPHRhWnF0ltaN-73" value="Client" style="html=1;whiteSpace=wrap;" parent="1" vertex="1">
                    <mxGeometry x="111" y="1027" width="110" height="50" as="geometry"/>
                </mxCell>
                <mxCell id="9sYsQofWPHRhWnF0ltaN-74" style="edgeStyle=orthogonalEdgeStyle;rounded=0;orthogonalLoop=1;jettySize=auto;html=1;entryX=0;entryY=0.5;entryDx=0;entryDy=0;entryPerimeter=0;" parent="1" source="9sYsQofWPHRhWnF0ltaN-70" target="9sYsQofWPHRhWnF0ltaN-84" edge="1">
                    <mxGeometry relative="1" as="geometry">
                        <mxPoint x="654" y="1052" as="targetPoint"/>
                    </mxGeometry>
                </mxCell>
                <mxCell id="9sYsQofWPHRhWnF0ltaN-75" value="Recover list of chats" style="edgeLabel;html=1;align=center;verticalAlign=middle;resizable=0;points=[];" parent="9sYsQofWPHRhWnF0ltaN-74" vertex="1" connectable="0">
                    <mxGeometry x="-0.2335" y="1" relative="1" as="geometry">
                        <mxPoint x="20" y="11" as="offset"/>
                    </mxGeometry>
                </mxCell>
                <mxCell id="9sYsQofWPHRhWnF0ltaN-80" value="System DB" style="verticalLabelPosition=bottom;html=1;verticalAlign=top;align=center;strokeColor=none;fillColor=#00BEF2;shape=mxgraph.azure.sql_database;" parent="1" vertex="1">
                    <mxGeometry x="675" y="368" width="37.5" height="50" as="geometry"/>
                </mxCell>
                <mxCell id="9sYsQofWPHRhWnF0ltaN-82" value="System DB" style="verticalLabelPosition=bottom;html=1;verticalAlign=top;align=center;strokeColor=none;fillColor=#00BEF2;shape=mxgraph.azure.sql_database;" parent="1" vertex="1">
                    <mxGeometry x="656.25" y="592" width="37.5" height="50" as="geometry"/>
                </mxCell>
                <mxCell id="9sYsQofWPHRhWnF0ltaN-83" value="System DB" style="verticalLabelPosition=bottom;html=1;verticalAlign=top;align=center;strokeColor=none;fillColor=#00BEF2;shape=mxgraph.azure.sql_database;" parent="1" vertex="1">
                    <mxGeometry x="681.25" y="751" width="37.5" height="50" as="geometry"/>
                </mxCell>
                <mxCell id="9sYsQofWPHRhWnF0ltaN-84" value="System DB" style="verticalLabelPosition=bottom;html=1;verticalAlign=top;align=center;strokeColor=none;fillColor=#00BEF2;shape=mxgraph.azure.sql_database;" parent="1" vertex="1">
                    <mxGeometry x="675" y="1027" width="37.5" height="50" as="geometry"/>
                </mxCell>
                <mxCell id="9sYsQofWPHRhWnF0ltaN-85" value="Receive Messages" style="shape=umlFrame;whiteSpace=wrap;html=1;pointerEvents=0;width=76;height=40;" parent="1" vertex="1">
                    <mxGeometry x="41" y="1353" width="736" height="200" as="geometry"/>
                </mxCell>
                <mxCell id="9sYsQofWPHRhWnF0ltaN-86" style="edgeStyle=orthogonalEdgeStyle;rounded=0;orthogonalLoop=1;jettySize=auto;html=1;exitX=0;exitY=0.75;exitDx=0;exitDy=0;entryX=1;entryY=0.75;entryDx=0;entryDy=0;" parent="1" source="9sYsQofWPHRhWnF0ltaN-88" target="9sYsQofWPHRhWnF0ltaN-91" edge="1">
                    <mxGeometry relative="1" as="geometry"/>
                </mxCell>
                <mxCell id="9sYsQofWPHRhWnF0ltaN-87" value="Message List" style="edgeLabel;html=1;align=center;verticalAlign=middle;resizable=0;points=[];" parent="9sYsQofWPHRhWnF0ltaN-86" vertex="1" connectable="0">
                    <mxGeometry x="0.0479" relative="1" as="geometry">
                        <mxPoint x="-6" y="13" as="offset"/>
                    </mxGeometry>
                </mxCell>
                <mxCell id="9sYsQofWPHRhWnF0ltaN-88" value="Messaging API" style="html=1;whiteSpace=wrap;" parent="1" vertex="1">
                    <mxGeometry x="360" y="1463" width="110" height="50" as="geometry"/>
                </mxCell>
                <mxCell id="9sYsQofWPHRhWnF0ltaN-89" style="edgeStyle=orthogonalEdgeStyle;rounded=0;orthogonalLoop=1;jettySize=auto;html=1;entryX=0;entryY=0.5;entryDx=0;entryDy=0;" parent="1" source="9sYsQofWPHRhWnF0ltaN-91" target="9sYsQofWPHRhWnF0ltaN-88" edge="1">
                    <mxGeometry relative="1" as="geometry"/>
                </mxCell>
                <mxCell id="9sYsQofWPHRhWnF0ltaN-90" value="/receive&lt;br&gt;&lt;br&gt;header:&lt;br&gt;user-token&lt;br&gt;&lt;br&gt;payload:&lt;br&gt;&amp;nbsp; &amp;nbsp; - chat_id&lt;br&gt;&amp;nbsp; &amp;nbsp; - itens_per_page&lt;br&gt;&amp;nbsp; &amp;nbsp; - offset" style="edgeLabel;html=1;align=left;verticalAlign=middle;resizable=0;points=[];" parent="9sYsQofWPHRhWnF0ltaN-89" vertex="1" connectable="0">
                    <mxGeometry x="-0.2081" y="1" relative="1" as="geometry">
                        <mxPoint x="-36" y="-64" as="offset"/>
                    </mxGeometry>
                </mxCell>
                <mxCell id="9sYsQofWPHRhWnF0ltaN-91" value="Client" style="html=1;whiteSpace=wrap;" parent="1" vertex="1">
                    <mxGeometry x="111" y="1463" width="110" height="50" as="geometry"/>
                </mxCell>
                <mxCell id="9sYsQofWPHRhWnF0ltaN-92" style="edgeStyle=orthogonalEdgeStyle;rounded=0;orthogonalLoop=1;jettySize=auto;html=1;entryX=-0.01;entryY=0.592;entryDx=0;entryDy=0;entryPerimeter=0;" parent="1" source="9sYsQofWPHRhWnF0ltaN-88" target="9sYsQofWPHRhWnF0ltaN-94" edge="1">
                    <mxGeometry relative="1" as="geometry">
                        <mxPoint x="631" y="1488" as="targetPoint"/>
                    </mxGeometry>
                </mxCell>
                <mxCell id="9sYsQofWPHRhWnF0ltaN-93" value="List messages" style="edgeLabel;html=1;align=center;verticalAlign=middle;resizable=0;points=[];" parent="9sYsQofWPHRhWnF0ltaN-92" vertex="1" connectable="0">
                    <mxGeometry x="-0.2335" y="1" relative="1" as="geometry">
                        <mxPoint x="20" y="11" as="offset"/>
                    </mxGeometry>
                </mxCell>
                <mxCell id="9sYsQofWPHRhWnF0ltaN-94" value="Messaging DB" style="image;sketch=0;aspect=fixed;html=1;points=[];align=center;fontSize=12;image=img/lib/mscae/Cache_Redis_Product.svg;" parent="1" vertex="1">
                    <mxGeometry x="650" y="1463" width="50" height="42" as="geometry"/>
                </mxCell>
                <mxCell id="2" value="Register" style="shape=umlFrame;whiteSpace=wrap;html=1;pointerEvents=0;" vertex="1" parent="1">
                    <mxGeometry x="41" y="50" width="740" height="200" as="geometry"/>
                </mxCell>
                <mxCell id="3" style="edgeStyle=orthogonalEdgeStyle;rounded=0;orthogonalLoop=1;jettySize=auto;html=1;exitX=0;exitY=0.75;exitDx=0;exitDy=0;entryX=1;entryY=0.75;entryDx=0;entryDy=0;" edge="1" parent="1" source="5" target="8">
                    <mxGeometry relative="1" as="geometry"/>
                </mxCell>
                <mxCell id="4" value="Authentication Token" style="edgeLabel;html=1;align=center;verticalAlign=middle;resizable=0;points=[];" vertex="1" connectable="0" parent="3">
                    <mxGeometry x="-0.2248" y="1" relative="1" as="geometry">
                        <mxPoint x="-15" y="12" as="offset"/>
                    </mxGeometry>
                </mxCell>
                <mxCell id="5" value="Messaging API" style="html=1;whiteSpace=wrap;" vertex="1" parent="1">
                    <mxGeometry x="370" y="145" width="110" height="50" as="geometry"/>
                </mxCell>
                <mxCell id="6" style="edgeStyle=orthogonalEdgeStyle;rounded=0;orthogonalLoop=1;jettySize=auto;html=1;entryX=0;entryY=0.5;entryDx=0;entryDy=0;" edge="1" parent="1" source="8" target="5">
                    <mxGeometry relative="1" as="geometry"/>
                </mxCell>
                <mxCell id="7" value="/signup&lt;br&gt;&lt;br&gt;payload:&lt;br&gt;&amp;nbsp; username&lt;br&gt;&amp;nbsp; password&lt;br&gt;&amp;nbsp; email" style="edgeLabel;html=1;align=left;verticalAlign=middle;resizable=0;points=[];" vertex="1" connectable="0" parent="6">
                    <mxGeometry x="-0.2081" y="1" relative="1" as="geometry">
                        <mxPoint x="-16" y="-49" as="offset"/>
                    </mxGeometry>
                </mxCell>
                <mxCell id="8" value="Client" style="html=1;whiteSpace=wrap;" vertex="1" parent="1">
                    <mxGeometry x="121" y="145" width="110" height="50" as="geometry"/>
                </mxCell>
                <mxCell id="9" style="edgeStyle=orthogonalEdgeStyle;rounded=0;orthogonalLoop=1;jettySize=auto;html=1;entryX=0;entryY=0.5;entryDx=0;entryDy=0;entryPerimeter=0;" edge="1" parent="1" source="5" target="11">
                    <mxGeometry relative="1" as="geometry">
                        <mxPoint x="641" y="170" as="targetPoint"/>
                    </mxGeometry>
                </mxCell>
                <mxCell id="10" value="Register user" style="edgeLabel;html=1;align=center;verticalAlign=middle;resizable=0;points=[];" vertex="1" connectable="0" parent="9">
                    <mxGeometry x="-0.2335" y="1" relative="1" as="geometry">
                        <mxPoint x="10" y="17" as="offset"/>
                    </mxGeometry>
                </mxCell>
                <mxCell id="11" value="System DB" style="verticalLabelPosition=bottom;html=1;verticalAlign=top;align=center;strokeColor=none;fillColor=#00BEF2;shape=mxgraph.azure.sql_database;" vertex="1" parent="1">
                    <mxGeometry x="675" y="145" width="37.5" height="50" as="geometry"/>
                </mxCell>
                <mxCell id="12" value="Edit &lt;br&gt;Message" style="shape=umlFrame;whiteSpace=wrap;html=1;pointerEvents=0;width=76;height=40;" vertex="1" parent="1">
                    <mxGeometry x="41" y="1576" width="736" height="200" as="geometry"/>
                </mxCell>
                <mxCell id="13" style="edgeStyle=orthogonalEdgeStyle;rounded=0;orthogonalLoop=1;jettySize=auto;html=1;exitX=0;exitY=0.75;exitDx=0;exitDy=0;entryX=1;entryY=0.75;entryDx=0;entryDy=0;" edge="1" parent="1" source="15" target="18">
                    <mxGeometry relative="1" as="geometry"/>
                </mxCell>
                <mxCell id="14" value="Message List" style="edgeLabel;html=1;align=center;verticalAlign=middle;resizable=0;points=[];" vertex="1" connectable="0" parent="13">
                    <mxGeometry x="0.0479" relative="1" as="geometry">
                        <mxPoint x="-6" y="13" as="offset"/>
                    </mxGeometry>
                </mxCell>
                <mxCell id="15" value="Messaging API" style="html=1;whiteSpace=wrap;" vertex="1" parent="1">
                    <mxGeometry x="360" y="1686" width="110" height="50" as="geometry"/>
                </mxCell>
                <mxCell id="16" style="edgeStyle=orthogonalEdgeStyle;rounded=0;orthogonalLoop=1;jettySize=auto;html=1;entryX=0;entryY=0.5;entryDx=0;entryDy=0;" edge="1" parent="1" source="18" target="15">
                    <mxGeometry relative="1" as="geometry"/>
                </mxCell>
                <mxCell id="17" value="/edit-message&lt;br&gt;&lt;br&gt;header:&lt;br&gt;user-token&lt;br&gt;&lt;br&gt;payload:&lt;br&gt;&amp;nbsp; &amp;nbsp; - message_id&lt;br&gt;&amp;nbsp; &amp;nbsp; - new_message" style="edgeLabel;html=1;align=left;verticalAlign=middle;resizable=0;points=[];" vertex="1" connectable="0" parent="16">
                    <mxGeometry x="-0.2081" y="1" relative="1" as="geometry">
                        <mxPoint x="-36" y="-64" as="offset"/>
                    </mxGeometry>
                </mxCell>
                <mxCell id="18" value="Client" style="html=1;whiteSpace=wrap;" vertex="1" parent="1">
                    <mxGeometry x="111" y="1686" width="110" height="50" as="geometry"/>
                </mxCell>
                <mxCell id="19" style="edgeStyle=orthogonalEdgeStyle;rounded=0;orthogonalLoop=1;jettySize=auto;html=1;entryX=-0.01;entryY=0.592;entryDx=0;entryDy=0;entryPerimeter=0;" edge="1" parent="1" source="15" target="21">
                    <mxGeometry relative="1" as="geometry">
                        <mxPoint x="631" y="1711" as="targetPoint"/>
                    </mxGeometry>
                </mxCell>
                <mxCell id="20" value="Change message" style="edgeLabel;html=1;align=center;verticalAlign=middle;resizable=0;points=[];" vertex="1" connectable="0" parent="19">
                    <mxGeometry x="-0.2335" y="1" relative="1" as="geometry">
                        <mxPoint x="20" y="11" as="offset"/>
                    </mxGeometry>
                </mxCell>
                <mxCell id="21" value="Messaging DB" style="image;sketch=0;aspect=fixed;html=1;points=[];align=center;fontSize=12;image=img/lib/mscae/Cache_Redis_Product.svg;" vertex="1" parent="1">
                    <mxGeometry x="650" y="1686" width="50" height="42" as="geometry"/>
                </mxCell>
            </root>
        </mxGraphModel>
    </diagram>
</mxfile>